<svg width="261" height="58" fill="none" xmlns="http://www.w3.org/2000/svg"><g clip-path="url('#a31iz3ljga')" fill="#fff"><path d="M81.017 22.25h-3.811v-1.84h2.828c3.03 0 5.108.404 6.176 1.267 1.097.86 1.645 2.527 1.645 5v4.685c0 2.469-.549 4.108-1.645 4.972-1.068.861-3.145 1.29-6.176 1.29h-2.828v-1.927h3.811c1.733 0 2.915-.317 3.58-.95.662-.602.98-1.723.98-3.303v-4.942c0-1.61-.318-2.729-.982-3.331-.664-.604-1.846-.921-3.579-.921h.001zm22.94 15.373h-6.984c-2.107 0-3.635-.343-4.56-1.035-.923-.718-1.384-1.866-1.384-3.476a2.013 2.013 0 0 1 .028-.372c0-.233.029-.433.029-.604v-.057h2.135v.428c0 1.295.26 2.156.75 2.558.52.43 1.591.634 3.175.634h6.893c1.702 0 2.8-.17 3.232-.545.433-.375.664-1.267.664-2.7 0-1.008-.202-1.696-.578-2.099-.375-.402-1.067-.604-2.05-.604h-6.924v-1.869h5.685c1.442 0 2.394-.173 2.885-.546.461-.373.721-1.121.721-2.241 0-1.206-.318-2.007-.954-2.324-.578-.345-1.934-.49-4.041-.49H97.09c-1.386 0-2.367.202-2.915.634s-.837 1.177-.837 2.24v.116c.013.047.023.096.029.145v.285h-2.079v-1.18c0-1.438.491-2.503 1.444-3.105.98-.602 2.625-.92 4.934-.92h5.656c2.424 0 4.126.318 5.08.951.953.634 1.414 1.726 1.414 3.333 0 1.437-.232 2.47-.664 3.018-.432.574-1.183.863-2.28.89v.116c1.127 0 1.934.286 2.452.86.492.577.722 1.523.722 2.818 0 2.095-.403 3.477-1.182 4.135-.779.69-2.425 1.006-4.907 1.006zM77.206 22.25h-3.81c-1.846 0-3.058.317-3.663.977-.607.633-.924 1.9-.924 3.821v4.137c0 1.752.319 2.933.955 3.563.604.634 1.816.95 3.635.95h3.809v1.927h-2.8c-3.059 0-5.106-.43-6.203-1.267-1.068-.864-1.616-2.502-1.616-4.915V26.88c0-2.585.52-4.282 1.59-5.174 1.067-.862 3.116-1.293 6.205-1.293h2.827l-.005 1.837zm158.832 15.344V35.93h1.702c1.355 0 2.339-.174 2.946-.517.607-.344.924-.893.924-1.638h1.96c0 1.29-.433 2.269-1.299 2.873-.894.634-2.251.95-4.098.95l-2.135-.004zm0-5.69v-1.722h5.542c0-1.208-.29-2.014-.839-2.443-.576-.432-1.646-.634-3.23-.634h-1.473v-1.723h1.53c2.194 0 3.722.403 4.647 1.267.925.864 1.355 2.297 1.355 4.337v.893l-7.529.028-.003-.003zm19.618 5.69h-4.787c-1.557 0-2.684-.317-3.35-1.006-.636-.658-.978-1.752-1.007-3.248h1.735c0 1.007.201 1.67.579 1.986.404.342 1.24.516 2.453.516h5.337c.981 0 1.647-.145 1.964-.402.317-.257.489-.777.489-1.551 0-.634-.173-1.094-.549-1.352-.375-.258-.981-.401-1.874-.401h-4.907c-2.049 0-3.433-.202-4.127-.662-.692-.432-1.038-1.321-1.038-2.64 0-1.236.405-2.126 1.183-2.64.807-.547 2.135-.806 3.982-.806h3.401c1.847 0 3.234.259 4.098.718.865.46 1.3 1.179 1.3 2.156v.804h-1.789v-.496c0-.546-.318-.92-.924-1.148-.606-.203-1.732-.288-3.347-.288h-1.876c-1.675 0-2.77.114-3.321.316-.575.23-.836.69-.836 1.38s.261 1.15.836 1.379c.551.23 1.646.345 3.321.345l3.259-.03c2.137 0 3.523.26 4.185.776.637.49.955 1.553.955 3.193 0 1.12-.402 1.922-1.211 2.412-.808.461-2.195.69-4.131.69h-.003zm-19.618-12.212v1.724h-1.471c-1.472 0-2.509.23-3.115.72-.636.459-.955 1.266-.955 2.356h5.539v1.723h-5.539v.633c0 1.206.319 2.097.955 2.615.636.517 1.696.778 3.174.778h1.413v1.664h-1.442c-2.107 0-3.636-.402-4.588-1.207-.955-.804-1.415-2.128-1.415-3.935v-1.901c0-1.839.464-3.16 1.415-3.964.924-.805 2.453-1.208 4.588-1.208l1.441.002zm-35.005 12.212v-1.752h1.444c1.442 0 2.452-.114 3.031-.375.604-.201.894-.602.894-1.208v-1.033c0-.574-.318-.976-.894-1.205-.575-.23-1.59-.346-3.031-.346h-1.444v-1.637h1.387c1.154 0 2.078.17 2.799.459.495.223.938.546 1.299.95v-1.61c0-1.008-.318-1.697-.895-2.098-.579-.374-1.558-.576-2.969-.576h-1.618v-1.781h1.909c1.846 0 3.202.345 4.066 1.063.867.69 1.299 1.811 1.299 3.304v7.672h-1.788v-1.579a2.675 2.675 0 0 1-1.212 1.236c-.666.343-1.674.516-3.002.516h-1.275zm19.597 0h-3.407c-1.932 0-3.348-.401-4.298-1.148-.925-.75-1.416-1.9-1.416-3.45V29.98c0-1.584.491-2.73 1.416-3.477.925-.746 2.366-1.12 4.298-1.12h2.828c2.049 0 3.519.316 4.387.95.838.66 1.273 1.752 1.273 3.332h-1.76c0-.977-.289-1.666-.809-2.012-.547-.373-1.556-.545-3.027-.545h-2.801c-1.385 0-2.366.2-2.969.634-.603.433-.925 1.09-.925 2.04v2.758c0 1.238.29 2.07.894 2.559.579.487 1.591.746 3.032.746h2.857c1.441 0 2.45-.229 3.029-.633.577-.434.865-1.18.865-2.274h1.791c0 1.638-.404 2.851-1.241 3.565-.814.718-2.143 1.092-4.017 1.092zm-19.597-12.212v1.781h-1.21c-1.358 0-2.252.115-2.713.317-.492.23-.722.66-.722 1.293v.345h-1.989c0-1.352.403-2.329 1.18-2.903.778-.575 2.079-.833 3.924-.833h1.53zm0 4.655v1.638h-1.443c-1.53 0-2.568.114-3.116.404-.549.257-.808.776-.808 1.549 0 .892.259 1.468.78 1.753.521.317 1.591.461 3.144.461h1.443v1.752h-1.902c-1.993 0-3.435-.317-4.274-.891-.864-.604-1.272-1.607-1.272-2.989 0-1.32.404-2.27 1.272-2.814.839-.576 2.227-.862 4.214-.862h1.962zm-42.331 7.557V35.93h1.672c1.355 0 2.338-.174 2.969-.517.607-.348.924-.893.924-1.638h1.962c0 1.29-.432 2.269-1.299 2.873-.894.634-2.25.95-4.098.95l-2.13-.004zm0-5.69v-1.722h5.539c0-1.208-.288-2.014-.838-2.443-.575-.432-1.646-.634-3.231-.634h-1.47v-1.723h1.529c2.164 0 3.724.403 4.648 1.267.892.86 1.355 2.297 1.355 4.337v.893l-7.529.028-.003-.003zm12.637 5.517h-1.932v-11.78h1.853v1.752c.305-.616.8-1.12 1.413-1.437.806-.373 1.992-.574 3.548-.574 1.962 0 3.349.288 4.216.92.834.604 1.272 1.608 1.272 3.018v1.584h-1.759v-1.125c0-1.006-.29-1.696-.895-2.098-.577-.374-1.702-.546-3.288-.546-1.529 0-2.653.23-3.374.69-.693.46-1.041 1.206-1.041 2.213v7.383h-.013zm15.843 0h-1.876v-10.2h-2.51v-1.696h2.51v-.832c0-1.41.348-2.443 1.07-3.103.69-.662 1.787-.978 3.287-.978h3.058v1.696h-2.97c-.923 0-1.557.17-1.961.486-.404.316-.608.836-.608 1.523v1.208h5.541v1.695h-5.541v10.201zm-71.393 0h-2.078v-16.81h2.078v16.81zm42.913-12.038v1.724h-1.475c-1.471 0-2.509.23-3.116.72-.636.459-.954 1.266-.954 2.356h5.542v1.723h-5.542v.633c0 1.206.318 2.097.954 2.615.637.517 1.673.778 3.175.778h1.416v1.664h-1.44c-2.108 0-3.638-.402-4.59-1.207-.954-.804-1.414-2.128-1.414-3.935v-1.901c0-1.839.463-3.16 1.414-3.964.924-.805 2.454-1.208 4.59-1.208l1.44.002zm-24.3 12.038h-1.877v-7.239c0-1.238-.345-2.042-1.06-2.473-.695-.373-2.079-.574-4.156-.574-1.963 0-3.378.23-4.242.747-.865.488-1.298 1.293-1.298 2.442v7.097h-1.877V25.525h1.877v2.218a3.669 3.669 0 0 1 1.76-1.667c.981-.46 2.425-.69 4.299-.69 2.397 0 4.098.317 5.08.978.982.66 1.5 1.752 1.5 3.303v7.758l-.006-.004zm9.407.173c-1.846 0-3.116-.317-3.839-.95-.722-.634-1.066-1.784-1.066-3.392v-6.125h-2.57v-1.602h2.57v-2.73h1.815v2.73h7.847v1.61h-7.877v6.236c0 .976.259 1.666.751 2.007.492.34 1.442.549 2.799.549 1.183 0 1.992-.175 2.424-.518.431-.343.664-.979.664-1.9V31.99h1.644v1.523c0 1.464-.405 2.502-1.183 3.134-.805.631-2.131.947-3.979.946z"/><path fill-rule="evenodd" clip-rule="evenodd" d="M54.697 17.076a15.813 15.813 0 0 0-3.492-3.046c1.616 3.45.808 7.703-2.25 10.23a8.621 8.621 0 0 1-12.09-1.09c-2.278-2.702-2.568-6.409-1.038-9.398a16.37 16.37 0 0 0-2.02 1.436 14.666 14.666 0 0 0-4.054 5.33 14.606 14.606 0 0 0-1.255 6.568 5.552 5.552 0 0 1 2.943.194 5.53 5.53 0 0 1 2.424 1.674c1.962 2.356 1.644 5.862-.692 7.788-.11.079-.217.165-.318.256 5.338 5.29 14.025 5.748 19.936.864 6.292-5.203 7.13-14.542 1.906-20.806z"/><path fill-rule="evenodd" clip-rule="evenodd" d="M50.08 46.215a27.219 27.219 0 0 0 3.722-7.727c-5.34 4.593-13.36 5.256-19.444 1.088-7.211-4.942-9.033-14.826-4.04-22.01 3.723-5.376 10.244-7.732 16.305-6.496a27.332 27.332 0 0 0-3.55-2.9C35.83 3.167 26.97 2.163 19.12 4.633a10.222 10.222 0 0 1 .947 6.606 10.25 10.25 0 0 1-3.334 5.788 10.333 10.333 0 0 1-12.653.71 10.527 10.527 0 0 1-.577-.431c-6.868 12.156-3.405 27.788 8.34 35.867C24.31 61.734 41.479 58.6 50.08 46.214z"/><path fill-rule="evenodd" clip-rule="evenodd" d="M.589 8.226a9.92 9.92 0 0 0 .116 2.93C1.6 8.916 3.91 7.423 6.418 7.737a5.41 5.41 0 0 1 3.262 1.61 5.363 5.363 0 0 1 .542 6.806 5.402 5.402 0 0 1-2.966 2.103c.508.153 1.03.26 1.558.317 2.97.374 5.8-.748 7.762-2.729a3.562 3.562 0 0 1-1.471-3.273 3.518 3.518 0 0 1 1.332-2.328 3.546 3.546 0 0 1 2.591-.72c.058 0 .145.03.23.03.117-4.743-3.432-8.942-8.25-9.487C5.87-.537 1.194 3.11.587 8.226z"/><path d="M131.949 47.08v-.549h.462c.519 0 .895-.087 1.097-.256.203-.17.289-.49.289-.95v-.432c0-.457-.089-.744-.289-.92-.2-.175-.578-.255-1.097-.255h-.462v-.55h.637c.636 0 1.095.12 1.378.376.283.256.434.691.434 1.267v.604c0 .575-.144 1.006-.434 1.267-.288.284-.749.402-1.378.402l-.637-.005zm5.744 0c-.81 0-1.359-.087-1.704-.318-.346-.197-.519-.572-.519-1.062v-2.472h.606v2.297c0 .402.116.69.345.804.203.147.665.202 1.386.202.576 0 1.011-.087 1.298-.23a.758.758 0 0 0 .404-.717v-2.356h.607v3.822h-.577v-.747a1.2 1.2 0 0 1-.521.546c-.318.172-.75.231-1.325.231zm5.483 0c-.579 0-1.012-.087-1.241-.288-.229-.2-.349-.577-.349-1.094v-1.954h-.807v-.516h.807v-.893h.607v.893h2.511v.516h-2.54v1.982c0 .317.088.549.26.664.145.114.461.173.894.173.377 0 .636-.06.78-.173.143-.114.203-.317.203-.605v-.49h.52v.487c0 .458-.117.805-.377 1.007-.259.201-.664.29-1.268.29zm-11.227-3.908v.55h-.519c-.52 0-.866.086-1.068.255-.203.169-.29.462-.29.92v.43c0 .463.087.777.29.95.202.174.548.257 1.068.257h.519v.548h-.668c-.636 0-1.126-.118-1.413-.402-.29-.26-.434-.69-.434-1.267v-.604c0-.573.144-1.003.434-1.267.289-.264.779-.375 1.413-.375l.668.005zm-9.379 3.907v-.516h.546c.432 0 .751-.06.954-.173a.553.553 0 0 0 .289-.517h.636c0 .402-.145.717-.404.919-.289.2-.721.287-1.329.287h-.692zm0-1.81v-.543h1.79c0-.403-.086-.663-.26-.804-.202-.115-.548-.202-1.039-.202h-.491v-.55h.491c.722 0 1.213.147 1.501.404.288.288.433.749.433 1.382v.316l-2.425-.004zm0-2.101v.549h-.461c-.462 0-.808.087-1.01.229-.203.173-.29.402-.29.777h1.761v.545h-1.761v.198c0 .402.087.658.29.832.202.173.548.26 1.038.26h.433v.517h-.461c-.663 0-1.154-.118-1.472-.375-.289-.26-.434-.69-.434-1.267v-.603c0-.604.145-1.008.434-1.296.318-.256.809-.375 1.472-.375l.461.009zm-11.686 3.907v-.548h.518c.52 0 .867-.087 1.069-.257.203-.17.318-.489.318-.95v-.431c0-.457-.114-.745-.318-.92-.203-.175-.549-.255-1.069-.255h-.518v-.55h.663c.663 0 1.126.119 1.414.375.289.257.433.692.433 1.268v.604c0 .575-.144 1.006-.433 1.267-.288.284-.751.402-1.414.402l-.663-.005zm8.252-.03h-.605v-2.319c0-.403-.116-.663-.346-.804-.203-.115-.665-.174-1.33-.174-.636 0-1.094.059-1.356.228-.289.146-.431.43-.431.778v2.296h-.607v-3.822h.607v.69c.131-.23.333-.411.576-.517.318-.173.779-.233 1.386-.233.749 0 1.299.118 1.615.316.316.2.491.576.491 1.066v2.494zm-8.252-3.882v.55h-.493c-.52 0-.895.086-1.069.255-.201.175-.318.463-.318.92v.43c0 .463.116.778.318.951.174.17.549.257 1.069.257h.491v.548h-.637c-.663 0-1.124-.118-1.413-.402-.29-.26-.433-.691-.433-1.268V44.8c0-.572.143-1.003.433-1.267.289-.264.75-.375 1.413-.375l.639.005zm-9.494 3.908v-.548h.432c.52 0 .893-.087 1.096-.257.202-.17.288-.489.288-.95v-.431c0-.457-.086-.745-.288-.92-.203-.175-.576-.256-1.096-.256h-.432v-.549h.604c.348 0 .636.06.809.175a.919.919 0 0 1 .403.343v-2.033h.578v5.405h-.518v-.634a.932.932 0 0 1-.405.461c-.232.142-.576.201-1.01.201l-.461-.007zm0-3.907v.549h-.405c-.549 0-.894.086-1.097.255-.202.17-.288.463-.288.92v.43c0 .463.086.778.288.951.203.173.548.257 1.097.257h.405v.548h-.578c-.637 0-1.097-.118-1.386-.402-.289-.26-.432-.691-.432-1.268V44.8c0-.572.143-1.003.432-1.267.288-.264.751-.375 1.386-.375l.578.005zm-5.833 3.907v-.548h.434c.52 0 .895-.087 1.098-.257.202-.17.288-.489.288-.95v-.431c0-.457-.117-.745-.288-.92-.203-.169-.578-.256-1.098-.256h-.434v-.549h.608c.28-.013.558.047.807.175.16.08.3.198.405.343v-2.033h.577v5.405h-.52v-.634a.91.91 0 0 1-.404.461c-.23.142-.577.201-1.01.201l-.463-.007zm0-3.907v.549h-.432c-.519 0-.865.086-1.067.255-.203.17-.29.463-.29.92v.43c0 .463.088.778.29.951.201.173.548.257 1.067.257h.432v.548h-.574c-.637 0-1.097-.118-1.385-.402-.289-.26-.433-.691-.433-1.268V44.8c0-.572.144-1.003.433-1.267.288-.264.75-.375 1.385-.375l.574.005zm-5.832 3.907v-.548h.49c.52 0 .895-.087 1.097-.257.203-.17.289-.489.289-.95v-.431c0-.457-.087-.745-.289-.92-.201-.175-.576-.256-1.097-.256h-.49v-.549h.664c.636 0 1.096.119 1.385.375.288.257.432.692.432 1.267v.604c0 .576-.144 1.007-.432 1.268-.289.284-.75.402-1.385.402l-.664-.005zm0-3.907v.549h-.491c-.547 0-.895.086-1.096.255-.202.17-.289.463-.289.92v.43c0 .463.087.778.288.951.202.173.55.257 1.097.257h.49v.548h-.662c-.636 0-1.097-.118-1.386-.402-.29-.26-.433-.691-.433-1.268V44.8c0-.572.144-1.003.433-1.267.29-.264.751-.375 1.386-.375l.663.005zm-9.35 3.907v-.517h.52c.432 0 .75-.059.954-.173a.549.549 0 0 0 .288-.517h.637c0 .402-.116.718-.405.92-.29.201-.721.287-1.327.287h-.667zm0-1.811v-.534h1.76c0-.403-.086-.663-.26-.804-.202-.115-.519-.202-1.037-.202h-.458v-.55h.491c.693 0 1.184.147 1.471.404.289.288.434.749.434 1.382v.316l-2.4-.012zm-10.614 1.82c-.606 0-1.011-.087-1.242-.288-.23-.2-.345-.577-.345-1.094v-1.954h-.808v-.516h.808v-.893h.606v.893h2.51v.516h-2.54v1.982c0 .317.088.549.261.664.144.114.46.173.893.173.376 0 .637-.06.78-.173.143-.114.201-.317.201-.605v-.49h.521v.487c0 .458-.117.805-.375 1.007-.26.201-.694.287-1.273.287l.003.003zm10.62-3.908v.55h-.492c-.46 0-.808.086-1.01.228-.2.173-.288.403-.288.777h1.79v.545h-1.79v.194c0 .402.087.658.319.832.201.174.52.26 1.01.26h.46v.517h-.46c-.693 0-1.184-.118-1.473-.375-.318-.26-.461-.69-.461-1.267v-.603c0-.604.143-1.008.431-1.296.319-.256.81-.375 1.502-.375l.461.013zm-3.464 3.878h-.606v-2.324c0-.403-.115-.663-.318-.804-.23-.115-.693-.174-1.357-.174-.636 0-1.096.059-1.355.228-.29.146-.434.43-.434.778v2.296h-.578v-5.405h.582v2.274a1.24 1.24 0 0 1 .577-.518c.318-.173.78-.233 1.386-.233.75 0 1.298.118 1.616.316.346.201.49.576.49 1.066l-.003 2.5z"/></g><defs><clipPath id="a31iz3ljga"><path fill="#fff" d="M0 0h261v58H0z"/></clipPath></defs></svg>